<?xml version="1.0" encoding="UTF-8"?>
<?xml-stylesheet href="https://cdnjs.cloudflare.com/ajax/libs/font-awesome/6.6.0/css/all.min.css" type="text/css"?>
<svg xmlns="http://www.w3.org/2000/svg" xmlns:xlink="http://www.w3.org/1999/xlink" width="100%" height="100%" stroke-linecap="round" viewBox="0 0 700 500" style="max-width: 100%;"><g><path d="M0 0 C0 0, 0 0, 0 0 M0 0 C0 0, 0 0, 0 0 M-0.427 3.853 C0.791 3.162, 2.086 2.206, 3.784 0.56 M-0.205 4.354 C1.142 3.08, 2.065 2.151, 4.24 0.293 M0.668 8.465 C2.355 4.025, 6.875 1.513, 9.457 -0.794 M0.596 7.886 C3.235 4.789, 5.783 2.216, 8.732 -0.374 M0.632 11.863 C6.032 9.671, 7.549 2.885, 15.154 1.837 M-1.002 12.497 C4.642 7.842, 8.404 4.317, 13.907 0.05 M-1.046 15.609 C3.816 12.945, 11.01 6.104, 19.064 1.321 M-0.416 15.554 C6.143 10.602, 12.207 3.817, 18.932 0.151 M-1.711 20.55 C7.199 13.303, 16.935 5.774, 23.081 -0.678 M0.808 19.895 C5.446 14.138, 10.945 9.212, 22.619 -0.201 M0.156 25.066 C8.15 18.496, 12.231 12.428, 25.733 1.008 M0.357 23.91 C6.607 18.123, 14.107 12.2, 27.928 0.592 M0.148 25.86 C8.004 19.29, 18.221 12.574, 32.227 1.181 M-0.866 26.756 C6.643 22.083, 13.793 16.095, 31.744 1.025 M-0.774 33.854 C12.116 19.887, 26.052 8.756, 37.971 -0.488 M-0.982 31.613 C12.526 21.406, 26.046 10.331, 36.217 0.413 M1.795 35.233 C10.481 25.232, 21.335 18.155, 41.383 -0.66 M0.82 35.373 C15.599 21.502, 31.446 8.556, 40.649 1.097 M1.122 39.591 C17.66 23.779, 34.025 8.103, 47.913 1.779 M-0.262 39.915 C8.405 31.401, 19.577 22.919, 46.718 0.577 M-1.099 43.907 C17.989 31.485, 30.655 17.924, 50.657 -0.3 M-0.165 42.552 C11.718 34.087, 23.438 24.477, 50.625 -0.773 M-0.613 48.113 C16.442 34.252, 31.994 20.206, 54.164 -0.03 M-0.098 48.364 C15.472 35.253, 30.776 20.952, 55.71 -0.74 M-0.643 53.464 C12.26 38.213, 28.222 26.197, 58.658 -0.98 M-1.06 51.15 C23.59 30.8, 46.499 10.238, 59.73 0.955 M0.397 53.971 C20.751 36.951, 41.13 22.038, 65.502 -0.384 M0.669 56.211 C12.973 44.993, 26.96 32.165, 64.38 0.397 M0.521 58.598 C25.865 38.656, 50.404 13.923, 67.561 1.834 M0.482 60.373 C25.52 37.071, 51.599 15.73, 68.554 -0.325 M-1.649 62.703 C26.99 38.808, 53.541 16.465, 75.53 -1.616 M-0.294 64.123 C27.377 39.409, 52.534 17.764, 73.756 -0.779 M-1.046 66.492 C24.851 43.651, 53.455 22.195, 77.609 -1.809 M-0.858 66.68 C21.463 49.118, 41.365 32.063, 78.197 -0.405 M0.112 72.516 C19.262 54.852, 40.728 37.56, 82.128 1.747 M0.455 71.245 C27.799 48.582, 53.532 25.797, 83.153 -0.286 M0.794 73.875 C28.594 48.466, 54.015 26.552, 86.372 -1.055 M0.62 75.077 C35.447 45.14, 68.44 16.587, 87.183 -0.722 M0.504 81.13 C21.642 60.629, 38.776 45.352, 93.978 -0.232 M-0.846 78.797 C28.128 54.231, 57.401 29.671, 93.118 0.599 M1.8 82.288 C30.658 59.658, 59.634 31.873, 96.089 1.501 M0.585 83.111 C20.726 65.595, 42.057 45.76, 96.93 0.714 M-1.71 87.256 C27.599 65.314, 53.332 45.323, 101.753 -0.94 M-0.308 86.428 C32.938 60.298, 64.805 31.639, 101.521 -0.616 M1.002 91.351 C42.868 55.659, 81.93 18.507, 106.921 -1.277 M0.628 90.739 C29.904 67.336, 60.14 41.483, 105.009 1.068 M-1.417 96.309 C40.945 59.517, 81.025 25.392, 110.218 0.171 M0.946 96.008 C31.147 67.677, 64.445 39.085, 110.389 -1.147 M0.872 100.836 C30.585 75.556, 56.799 47.635, 113.488 -0.377 M-0.799 99.321 C23.685 77.505, 50.124 54.949, 114.527 -0.454 M1.65 101.989 C45.708 60.215, 91.737 21.359, 118.536 1.185 M0.242 103.525 C27.692 79.129, 53.472 56.852, 119.601 0.455 M-2.056 106.251 C41.767 70.835, 82.625 35.52, 124.78 -1.394 M-1.135 107.205 C44.104 66.301, 90.007 27.669, 124.418 -0.391 M-0.067 112.476 C46.032 70.088, 91.986 32.293, 128.821 -0.37 M0.703 111.316 C33.435 81.95, 66.237 53.638, 129.345 -0.228 M1.728 115.774 C30.982 88.438, 63.158 64.724, 134.213 -1.928 M-0.35 114.311 C47.66 74.572, 94.956 33.786, 133.844 -0.559 M-1.481 120.247 C34.316 88.937, 66.429 59.829, 137.104 1.699 M1.331 117.995 C50.941 75.777, 100.63 30.805, 137.809 -0.24 M0.667 121.425 C48.906 78.615, 101.021 37.075, 144.288 0.114 M0.053 122.836 C35.574 90.786, 74.145 58.355, 143.248 0.994 M-1.297 126.046 C35.968 94.5, 78.86 61.17, 148.762 1.411 M-0.408 127.473 C51.583 83.339, 103.158 39.968, 147.801 -0.109 M-0.156 130.891 C58.717 81.726, 115.228 31.144, 150.138 0.135 M-0.697 129.927 C39.91 99.416, 77.374 66.267, 152.021 0.514 M-0.609 135.547 C56.657 89.284, 111.3 41.381, 154.561 -0.861 M-0.684 134.872 C54.185 89.009, 110.181 41.034, 156.08 0.782 M-1.283 138.588 C51.599 91.773, 107.327 46.647, 159.948 -0.02 M0.858 137.529 C49.901 92.928, 99.931 50.636, 160.632 0.767 M0.62 142.996 C58.854 93.897, 117.943 42.705, 165.187 -0.55 M0.41 143.324 C55.276 95.181, 109.717 49.386, 165.782 -0.101 M0.464 145.596 C45.386 109.743, 91.333 66.67, 169.882 -0.541 M-0.828 145.976 C37.724 115.217, 76.699 81.827, 170.126 0.255 M-0.503 149.478 C40.231 115.744, 81.57 80.729, 172.714 -0.273 M-0.517 150.37 C65.379 96.192, 128.667 40.481, 174.014 0.845 M0.082 153.852 C51.09 109.188, 103.01 63.128, 180.831 -0.918 M-0.597 154.162 C42.686 117.051, 85.016 79.829, 179.982 0.414 M-0.093 159.388 C52.563 115.841, 103.286 71.496, 182.839 -1.362 M0.554 157.713 C67.85 99.925, 134.454 43.805, 184.372 -0.554 M-1.199 161.72 C43.243 127.65, 83.517 91.338, 187.425 -1.423 M-0.627 162.789 C54.513 115.703, 107.203 70.066, 189.224 -0.736 M1.542 165.759 C62.792 112.311, 122.904 58.058, 191.874 -0.722 M0.476 166.441 C40.559 131.088, 81.942 96.952, 193.614 -0.05 M1.575 169.755 C76.89 102.826, 153.357 38.44, 197.303 -1.161 M-0.751 170.423 C66.547 112.264, 133.976 55.033, 198.238 -0.427 M-0.65 175.204 C60.941 121.159, 123.322 69.524, 202.702 0.686 M0.353 174.733 C49.982 133.567, 98.418 91.251, 202.689 -0.529 M-0.231 178.193 C49.046 136.892, 93.403 96.996, 207.184 -1.202 M-0.347 178.204 C61.602 126.118, 122.974 73.339, 207.509 0.184 M-0.33 182.404 C83.065 112.071, 168.444 39.23, 211.733 1.441 M0.465 181.685 C72.229 120.981, 144.393 58.411, 210.729 -0.098 M-0.611 185.493 C61.785 130.264, 127.37 74.215, 215.326 -1.243 M0.99 186.447 C80.076 116.255, 159.416 47.902, 216.002 -0.882 M0.763 189.624 C46.307 149.104, 90.412 111.548, 219.383 -0.691 M-0.148 190.72 C63.161 134.03, 126.231 80.728, 219.829 -0.291 M0.105 195.251 C73.743 130.242, 146.7 65.843, 225.138 0.209 M0.349 193.997 C62.126 140.435, 125.145 85.604, 224.872 -0.553 M0.785 198.771 C84.024 125.172, 169.616 51.965, 230.787 0.711 M0.463 197.502 C85.413 123.946, 170.118 51.247, 230.153 -0.317 M-0.522 202.02 C62.683 147.379, 128.612 92.789, 233.407 1.134 M0.194 201.507 C84.562 127.027, 170.982 52.867, 234.254 -0.546 M-0.602 205.564 C81.584 135.666, 159.689 68.509, 238.098 0.015 M-0.366 206.26 C76.907 141.818, 152.83 76.54, 239.009 0.74 M-0.202 209.664 C66.553 156.26, 129.352 99.567, 244.141 -0.358 M0.536 210.086 C91.985 131.174, 184.827 51.238, 244.075 -0.491 M0.026 213.298 C56.041 168.106, 110.912 118.681, 249.108 -0.03 M0.862 212.924 C93.894 130.361, 187.129 49.638, 248.594 0.045 M0.773 218.75 C78.063 150.69, 156.222 86.41, 251.838 -1.088 M-0.4 218.211 C89.82 138.657, 179.987 61.464, 253.633 -0.539 M0.596 220.613 C88.719 143.63, 178.456 66.222, 258.689 -0.224 M0.359 221.936 C68.286 160.632, 138.942 100.297, 256.826 -0.053 M0.653 226.784 C79.859 157.608, 161.289 88.904, 263.134 -0.592 M0.704 224.869 C83.048 152.785, 165.635 81.999, 262.714 0.094 M0.9 230.213 C101.516 140.328, 202.989 54.682, 267.295 0.237 M0.169 229.676 C62.037 177.588, 124.137 123.837, 266.936 0.311 M0.778 233.306 C56.226 184.514, 109.983 137.735, 270.352 0.486 M0.849 233.809 C83.668 162.375, 168.203 90.364, 271.14 0.061 M-1.077 237.1 C61.752 183.012, 127.788 125.843, 276.94 0.188 M0.351 237.913 C104.582 148.13, 207.859 59.135, 275.232 0.296 M-0.676 242.209 C89.239 166.191, 177.767 88.696, 280.526 0.914 M-0.28 242.023 C101.118 153.321, 202.476 65.866, 280.272 -0.065 M-0.444 244.2 C86.391 171.998, 172.565 96.366, 284.694 -0.79 M0.322 244.849 C96.707 162.464, 193.187 79.193, 284.709 0.147 M-1.388 249.849 C101.194 163.056, 201.724 74.975, 290.252 -1.298 M-0.773 249.4 C65.469 193.004, 131.661 136.582, 289.965 -0.449 M0.305 252.917 C105.873 157.801, 214.768 66.496, 293.561 0.061 M0.14 253.147 C62.603 199.713, 124.972 145.021, 293.836 0.496 M-0.219 256.558 C114.352 161.563, 227.741 62.338, 298.837 0.157 M-0.136 257.666 C85.221 186.212, 169.052 114.044, 299.605 -0.495 M-0.147 262.038 C61.388 206.933, 121.698 154.14, 304.185 -0.901 M-0.034 260.979 C71.369 201.232, 143.226 139.896, 303.999 0.335 M0.576 264.595 C96.789 181.532, 191.513 99.93, 308.625 -1.116 M0.236 264.853 C64.954 211.472, 128.056 156.39, 308.638 0.047 M0.465 269.76 C109.733 174.601, 221.142 78.629, 312.208 -0.93 M-0.258 269.338 C64.856 215.045, 128.996 158.989, 313.108 0.241 M-0.349 274.034 C84.073 202.578, 168.436 130.918, 316.285 -0.234 M-0.3 272.781 C102.816 183.709, 205.6 94.736, 316.83 0.678 M-0.796 277.025 C75.777 210.105, 152.676 145.723, 321.143 -0.695 M0.079 277.286 C99.286 190.562, 200.372 104.509, 322.427 0.049 M0.287 280.079 C101.781 192.382, 202.119 105.86, 326.17 0.903 M0.101 280.721 C94.248 198.484, 189.905 116.584, 326.567 0.195 M0.469 284.302 C116.012 184.267, 231.276 84.474, 330.981 0.096 M-0.048 284.803 C95.648 205.472, 190.014 124.145, 330.837 0.219 M0.103 289.834 C122.039 183.879, 244.885 76.623, 334.886 0.604 M-0.835 289.291 C70.36 227.202, 141.805 165.97, 335.744 0.05 M-0.068 292.836 C80.239 225.156, 159.705 154.996, 341.197 0.65 M-0.027 292.381 C104.329 204.525, 207.027 116.015, 339.881 0.025 M0.088 296.932 C77.577 230.115, 154.375 164.459, 344.958 0.336 M-0.675 297.057 C96.381 212.812, 194.052 129.065, 344.188 -0.21 M-0.131 300.485 C81.557 231.083, 162.132 160.401, 349.898 0.222 M0.062 300.527 C72.987 238.145, 145.759 175.86, 349.291 0 M0.109 304.241 C81.59 233.363, 164.412 163.209, 354.188 -0.129 M-0.13 305.183 C76.223 239.14, 150.295 175.414, 354.215 0.419 M0.773 308.705 C136.829 191.756, 274.39 73.794, 358.972 -0.301 M0.342 308.457 C99.382 220.924, 200.549 134.234, 359.228 -0.438 M-0.775 313.309 C124.637 206.042, 247.826 98.713, 362.689 0.901 M-0.353 312.541 C130.983 198.191, 263.066 85.548, 363.449 0.005 M-0.936 316.134 C93.457 234.83, 187.83 153.097, 368.602 -0.314 M-0.353 316.895 C96.854 230.792, 194.617 146.492, 367.873 -0.53 M0.044 320.929 C88.633 244.379, 176.278 168.778, 371.654 0.247 M0.501 320.312 C143.616 195.874, 288.319 71.18, 372.379 0.528 M-0.531 324.005 C106.628 233.061, 215.624 140.645, 377.411 -0.149 M-0.008 324.962 C134.281 208.727, 268.371 93.753, 377.409 0.166 M-0.509 327.878 C88.006 252.823, 174.873 177.004, 381.855 0.518 M0.576 328.08 C83.303 258.707, 165.443 187.331, 381.236 -0.213 M-0.816 332.843 C153.105 200.116, 306.492 68.701, 386.268 -0.145 M0.067 332.229 C147.761 206.347, 294.407 80.161, 386.112 0.192 M0.95 335.764 C119.578 232.593, 237.865 131.424, 390.765 -0.612 M0.024 336.31 C126.559 228.507, 253.251 119.128, 390.403 0.035 M0.174 340.953 C142.019 218.154, 285.851 94.471, 395.863 -0.737 M0.066 340.117 C137.363 223.136, 274.467 104.797, 395.772 -0.35 M-0.192 344.852 C135.915 225.277, 273.449 106.118, 399.781 0.476 M-0.587 344.834 C124.563 237.735, 249.564 129.91, 400.309 0.358 M0.343 347.466 C138.053 230.091, 274.232 113.807, 405.364 0.485 M-0.152 347.909 C157.104 214.605, 313.788 79.953, 404.877 -0.551 M0.153 352.151 C120.473 248.509, 238.179 146.228, 409.11 0.621 M0.102 352.333 C158.415 213.411, 317.424 76.36, 408.979 0.3 M0.499 355.443 C98.933 272.429, 199.219 186.084, 413.418 0.518 M0.299 355.965 C83.258 284.299, 166.56 212.183, 414.182 -0.314 M-0.283 359.422 C141.773 238.645, 281.804 116.364, 418.981 -0.345 M-0.316 360.178 C152.251 228.288, 304.991 96.725, 418.617 0.399 M-1.085 364.567 C148.28 237.536, 298.626 107.647, 423.605 -0.701 M-0.117 364.22 C117.336 261.999, 234.091 161.979, 423.068 -0.059 M0.175 368.586 C92.705 289.245, 183.678 211.317, 427.355 0.448 M-0.238 368.276 C151.119 238.927, 301.142 109.335, 427.916 0.142 M-0.389 372.378 C159.419 235.055, 321.459 96.31, 432.489 -0.725 M-0.003 372.443 C112.064 276.796, 223.612 180.69, 432.9 -0.623 M0.6 375.824 C130.081 265.112, 258.219 153.833, 436.68 0.53 M0.371 375.449 C172.49 226.975, 345.732 77.971, 436.745 0.226 M0.37 379.748 C96.373 296.582, 192.098 213.767, 441.394 0.011 M-0.459 379.954 C153.27 248.219, 306.006 116.996, 441.794 -0.255 M0.56 383.743 C143.072 257.607, 287.45 133.556, 445.551 0.71 M0.549 383.778 C171.476 237.865, 340.922 92.13, 446.384 0.135 M0.705 388.537 C111.309 293.248, 223.354 196.964, 450.691 -0.951 M-0.01 387.593 C110.018 295.459, 219.003 201.63, 451.005 -0.511 M-0.837 391.6 C109.927 297.273, 220.719 202.185, 455.358 0.018 M-0.527 392.265 C159.077 256.051, 318.696 119.079, 455.194 0.032 M-0.083 395.713 C175.445 247.014, 350.449 96.507, 460.382 0.443 M0.008 395.434 C133.811 279.705, 267.19 165.017, 459.861 -0.024 M-0.827 400.53 C92.557 320.937, 185.634 241.905, 464.306 0.152 M-0.162 400.307 C156.256 268.544, 310.775 135.027, 464.249 0.337 M0.989 403.19 C175.279 253.78, 351.027 102.918, 469.322 -0.09 M0.196 403.274 C150.522 272.525, 301.212 142.341, 468.857 0.203 M-0.459 407.555 C187.485 245.032, 374.759 83.358, 474.343 0.202 M-0.117 407.823 C177.12 256.566, 355.222 102.675, 473.852 -0.381 M-0.536 411.333 C97.879 326.111, 196.86 241.635, 478.268 -0.438 M-0.346 411.946 C151.163 279.578, 302.669 148.956, 478.065 0.569 M-0.282 415.285 C99.798 327.358, 201.253 240.352, 483.301 -0.309 M0.134 415.526 C132.303 305.008, 263.436 192.174, 483.227 -0.162 M-0.865 420.381 C146.132 293.079, 295.432 165.58, 487.607 0.459 M-0.597 419.692 C174.75 269.376, 350.979 117.54, 486.955 0.312 M0.467 423.402 C129.86 313.971, 257.844 202.538, 492.55 -0.583 M-0.044 423.292 C143.773 299.149, 286.779 176.004, 492.406 -0.177 M0.057 426.875 C117.658 324.16, 235.93 222.627, 496.59 0.706 M0.109 427.825 C178.692 275.483, 355.864 123.395, 496.35 0.226 M0.69 430.49 C123.217 324.804, 244.201 220.085, 500.828 0.396 M0.103 430.838 C99.931 346.174, 201.225 258.769, 501.56 -0.069 M-0.656 435.347 C195.345 268.258, 388.543 102.179, 505.654 0.918 M-0.153 435.723 C131.485 320.599, 262.447 207.66, 505.639 0.237 M-0.641 439.958 C170.543 291.584, 339.523 145.744, 510.199 -0.174 M-0.293 439.776 C133.02 324.944, 266.457 209.925, 510.16 0.055 M-0.402 442.777 C133.241 327.756, 266.63 213.521, 514.543 0.842 M0.29 443.222 C147.119 314.46, 295.327 186.66, 514.383 0.53 M0.596 447.539 C127.171 337.123, 252.792 229.875, 519.575 0.121 M-0.401 447.667 C199.754 277.973, 398.814 107.159, 519.509 0.055 M-0.106 451.661 C202.646 278.295, 406.722 103.834, 524.019 0.055 M0.12 450.667 C140.478 330.629, 281.575 208.673, 524.156 -0.146 M0.703 455.749 C116.774 353.846, 234.129 252.795, 528.777 -0.563 M-0.317 455.487 C167.104 312.501, 334.693 168.3, 528.878 0.091 M-0.753 459.425 C170.45 312.524, 340.941 165.473, 533.278 0.927 M-0.326 459.701 C129.153 347.688, 256.618 237.914, 533.159 -0.026 M0.63 462.996 C152.237 330.988, 304.893 200.131, 538.051 -0.938 M-0.171 462.757 C119.682 359.699, 238.813 256.8, 537.93 -0.168 M-0.096 467.526 C187.793 306.794, 375.636 145.824, 542.003 0.723 M-0.036 467.357 C204.278 290.699, 407.228 116.086, 542.414 0.144 M-0.009 470.329 C135.851 353.322, 270.739 235.845, 547.279 -0.045 M-0.137 471.193 C197.707 301.136, 396.078 130.194, 547.339 -0.559 M-0.143 474.554 C188.804 311.166, 379.931 147.196, 552.068 0.632 M-0.1 474.998 C189.81 311.628, 379.605 148.428, 551.625 -0.025 M-0.129 478.423 C132.561 364.059, 266.938 248.995, 557.177 -0.403 M0.412 478.271 C213.994 294.663, 428.439 110.063, 556.72 -0.241 M-0.192 482.931 C182.949 323.792, 366.352 165.769, 560.87 0.299 M-0.186 482.538 C162.051 341.763, 324.706 201.413, 561.263 0.186 M-0.853 487.546 C140.511 367.59, 280.303 247.959, 566.02 -0.063 M-0.012 487.3 C174.481 335.117, 350.957 183.494, 565.706 -0.442 M-0.545 490.852 C220.972 303.064, 439.132 115.248, 569.736 -0.25 M-0.14 490.464 C157.618 352.947, 316.966 216.268, 570.283 0.221 M-0.44 494.413 C122.487 387.673, 244.865 282.974, 575.635 0.177 M-0.443 495.075 C226.595 298.92, 451.105 105.376, 574.73 -0.297 M-0.279 498.572 C190.966 337.07, 379.069 173.706, 578.54 0.574 M0.652 498.41 C218.249 309.91, 435.941 121.226, 579.623 -0.122 M3.763 500.005 C147.316 375.241, 290.131 251.206, 584.031 -0.073 M3.175 500.466 C124.688 398.356, 244.845 295.181, 584.286 -0.231 M8.14 499.477 C187.905 342.25, 367.013 188.741, 588.442 0.222 M7.602 499.55 C144.926 381.91, 281.661 264.162, 588.757 0.061 M12.498 499.78 C166.023 367.188, 320.724 235.306, 593.271 0.424 M12.363 500.419 C170.375 365.757, 329.07 229.324, 593.623 -0.457 M16.66 499.245 C153.317 379.83, 290.749 262.306, 597.434 0.258 M17.165 499.955 C179.927 362.393, 341.588 222.881, 597.36 0.075 M21.204 499.396 C211.158 338.715, 398.968 176.126, 603.541 -0.377 M21.46 500.055 C179.893 362.628, 337.226 227.008, 602.689 -0.006 M26.138 500.094 C226.801 328.295, 426.54 154.867, 606.222 0.459 M26.699 499.426 C154.871 388.416, 283.651 276.989, 607.127 0.017 M30.657 500.35 C157.889 388.738, 285.973 278.367, 612.289 0.175 M30.805 500.244 C188.656 363.167, 347.584 226.206, 611.888 0.065 M34.902 499.704 C264.413 304.433, 493.054 105.805, 615.45 -0.709 M35.453 499.775 C185.535 369.741, 335.978 240.278, 616.163 -0.186 M39.457 499.495 C216.676 347.943, 393.882 196.845, 621.434 -0.329 M40.228 500.175 C168.07 390.193, 297.815 279.039, 621.053 -0.532 M45.039 500.174 C165.937 392.613, 287.456 289.042, 625.548 -0.564 M44.576 500.104 C248.871 325.539, 451.964 151.277, 625.518 0.036 M49.402 500.631 C246.304 331.068, 444.738 160.155, 628.995 -0.488 M48.732 500.333 C206.182 363.421, 362.359 228.533, 629.416 0.705 M53.991 500.239 C172.154 399.055, 289.022 298.049, 634.669 0.57 M53.369 500.726 C226.434 353.401, 399.223 205.199, 634.478 0.286 M57.536 500.185 C250.006 333.589, 440.614 170.466, 638.449 0.641 M58.242 500.174 C206.397 372.035, 355.791 243.433, 639.048 0.386 M62.867 499.92 C184.514 393.575, 305.533 288.686, 644.493 0.251 M62.197 499.93 C194.416 386.898, 323.808 274.955, 643.915 -0.257 M66.964 500.459 C272.069 320.36, 479.039 142.168, 647.31 -0.026 M67.616 499.707 C196.617 387.853, 327.036 274.874, 648.247 0.576 M71.537 500.558 C209.326 382.629, 347.204 262.984, 652.634 -0.642 M71.417 500.653 C280.095 322.576, 487.27 144.235, 653.08 0.311 M77.535 500.764 C247.56 353.624, 420.248 205.036, 657.925 0.269 M76.529 499.661 C239.231 359.118, 402.152 218.814, 657.158 0.589 M81.752 499.732 C294.815 317.829, 508.391 133.968, 661.921 0.041 M80.989 499.97 C237.462 365.264, 393.692 230.855, 662.533 -0.12 M86.291 499.834 C290.753 321.027, 496.412 144.137, 666.336 -0.238 M85.959 499.975 C205.088 398.526, 322.397 297.515, 666.704 0.17 M90.829 500.509 C299.82 321.367, 507.771 140.955, 671.871 0.065 M89.952 500.068 C291.223 327.573, 493.759 152.9, 671.482 0.143 M95.526 499.417 C232.241 380.561, 368.093 264.17, 676.265 -0.503 M95.255 499.897 C254.676 361.441, 413.734 224.404, 676.13 0.005 M98.992 500.667 C265.906 355.109, 435.148 209.118, 680.411 -0.348 M99.468 499.978 C270.956 352.373, 443.106 203.887, 680.949 -0.065 M104.487 499.911 C246.729 376.979, 391.36 252.475, 684.958 0.017 M104.265 500.012 C279.078 347.396, 453.927 197.395, 684.951 0.008 M109.109 499.965 C232.341 392.87, 356.599 286.274, 690.106 -0.532 M108.904 500.311 C248.419 379.052, 385.853 261.084, 689.857 -0.135 M113.185 500.127 C339.535 306.324, 564.868 113.607, 694.132 -0.456 M113.905 500.075 C296.564 342.65, 478.944 186.346, 694.192 -0.098 M117.923 499.612 C299.195 343.677, 479.375 188.457, 698.871 -0.787 M117.551 500.036 C257.287 380.585, 397.914 260.142, 699.079 -0.416 M123.511 500.157 C263.082 377.854, 401.622 259.562, 699.614 3.273 M122.949 499.883 C253.391 387.216, 383.599 275.466, 700.451 2.86 M126.578 499.69 C314.167 339.189, 501.823 176.272, 699.674 7.357 M126.968 499.834 C331.448 323.565, 537.636 146.12, 700.403 7.308 M131.387 499.065 C308.165 345.631, 486.103 193.074, 700.102 9.967 M131.712 499.497 C268.601 382.66, 406.446 263.872, 700.873 10.3 M136.689 500.085 C306.928 350.958, 478.863 202.571, 700.229 14.319 M135.931 500.474 C268.139 388.608, 398.467 276.607, 700.139 14.498 M141.643 500.27 C298.18 365.596, 454.943 230.825, 699.774 19.103 M141.56 500.017 C272.947 385.708, 403.182 273.637, 699.966 18.881 M144.75 500.139 C337.482 333.045, 531.393 165.909, 700.271 22.778 M145.893 499.834 C337.412 334.054, 528.753 169.034, 700.097 22.919 M149.9 500.382 C318.045 356.275, 488.577 209.747, 699.188 26.561 M150.625 500.031 C318.03 354.8, 485.114 210.114, 699.738 26.592 M154.448 499.997 C268.719 401.915, 382.134 303.654, 700.707 29.641 M154.588 499.854 C299.831 375.131, 446.755 249.422, 700.495 30.367 M159.976 499.037 C272.729 402.742, 385.199 306.587, 699.526 35.298 M160.079 499.579 C357.573 328.499, 554.906 159.378, 700.476 34.696 M163.168 499.753 C280.661 401.587, 396.678 302.803, 700.194 37.999 M163.782 500.149 C359.539 333.643, 554.641 166.051, 700.727 38.214 M168.918 500.216 C308.683 378.145, 447.657 259.76, 700.924 42.252 M169.254 499.4 C332.81 358.667, 495.773 218.881, 700.543 42.152 M173.847 500.119 C371.361 327.007, 569.834 156.457, 699.575 46.819 M173.166 500.179 C335.476 362.04, 495.503 223.916, 699.595 46.923 M177.642 499.806 C334.874 365.415, 493.06 228.951, 699.972 50.454 M177.985 499.928 C307.346 390.727, 435.22 280.915, 700.247 50.372 M182.108 500.768 C334.692 370.896, 486.889 240.063, 699.772 54.696 M182.135 499.713 C320.629 379.123, 460.451 258.323, 699.681 54.7 M188.016 500.13 C349.687 359.463, 511.689 220.827, 700.788 58.404 M187.026 500.07 C345.322 362.713, 503.891 225.964, 700.505 57.767 M191.548 500.356 C296.241 411.397, 402.133 318.471, 700.802 61.677 M191.815 499.671 C371.339 345.313, 552.167 189.76, 699.908 62.138 M196.497 499.839 C319.444 395.206, 441.905 288.818, 699.171 67.017 M196.792 499.549 C320.813 394.941, 444.274 288.696, 699.976 66.356 M200.077 499.458 C318.667 398.877, 437.451 297.715, 700.831 70.301 M200.694 499.739 C389.989 334.311, 581.081 169.524, 700.563 69.909 M204.367 500.269 C382.268 348.465, 561.409 195.249, 699.54 74.263 M204.928 500.196 C366.486 359.771, 529.557 219.552, 699.969 74.698 M210.325 499.536 C349.796 383.143, 487.634 263.644, 700.715 77.369 M210.037 499.82 C389.277 345.008, 568.99 190.497, 700.047 78.1 M213.903 500.741 C376.204 360.304, 540.548 219.926, 700.878 82.799 M214.498 500.275 C340.467 389.409, 467.563 279.788, 700.378 81.869 M218.703 500.409 C371.243 370.469, 522.291 240.786, 700.042 84.996 M219.629 499.921 C380.729 360.95, 541.902 222.746, 700.451 85.52 M223.493 501.081 C390.08 359.467, 554.968 217.865, 699.969 90.29 M223.248 500.067 C357.871 383.317, 491.41 267.735, 700.434 89.9 M228.093 500.032 C406.388 346.035, 583.951 193.181, 700.025 93.848 M228.648 499.724 C368.084 378.943, 507.98 258.087, 700.181 94.415 M233.322 499.842 C357.356 393.35, 481.964 285.718, 699.776 98.532 M232.62 500.282 C356.26 394.308, 479.452 287.126, 700.655 97.754 M237.777 500.185 C350.065 403.657, 462.535 306.874, 700.371 102.531 M237.328 500.215 C422.593 342.631, 605.263 184.655, 699.704 101.907 M241.746 500.553 C353.422 403.543, 462.612 307.592, 700.033 105.441 M242.218 500.007 C400.897 362.975, 559.027 226.734, 700.233 105.667 M247.163 500.567 C349.224 410.56, 451.932 323.379, 699.545 109.358 M246.795 500.044 C416.884 352.83, 589.194 205.303, 699.908 109.57 M251.165 501.005 C412.257 360.248, 575.026 221.032, 700.136 113.79 M250.771 500.134 C343.783 420.171, 434.998 341.434, 699.847 114.149 M256.743 500.524 C377.591 394.229, 500.252 287.321, 699.84 118.234 M256.018 500.286 C406.747 372.497, 556.725 243.943, 700.245 117.782 M260.33 499.906 C430.232 352.133, 599.977 206.519, 699.178 122.046 M260.467 500.553 C368.067 409.826, 474.681 317.924, 699.67 121.533 M264.926 500.152 C410.215 374.171, 553.337 250.586, 700.84 124.872 M265.656 499.669 C437.563 353.132, 609.022 205.387, 700.281 125.802 M269.625 499.765 C401.376 387.64, 533.654 275.897, 700.16 129.807 M269.555 500.416 C370.433 414.685, 470.083 328.686, 699.912 129.442 M274.792 500.399 C440.834 357.577, 606.977 214.542, 700.924 133.256 M274.253 499.696 C430.399 363.792, 587.345 229.063, 700.241 132.899 M279.197 500.671 C377.32 414.59, 478.246 329.031, 699.487 137.952 M278.757 499.936 C441.24 361.883, 602.961 222.565, 700.381 137.568 M284.49 500.394 C445.465 361.635, 608.08 222.259, 699.908 142.472 M283.581 500.078 C413.574 389.754, 542.691 279.116, 700.014 141.575 M287.41 500.602 C408.046 398.151, 527.838 293.196, 700.664 145.159 M288.422 500.433 C446.975 365.492, 605.013 229.588, 700.354 145.274 M293.689 500.262 C453.134 361.425, 613.16 223.337, 700.77 148.833 M293.174 499.623 C405.218 404.281, 517.641 307.28, 699.697 149.137 M297.905 499.916 C456.541 362.937, 617.042 225.352, 700.902 152.965 M297.067 500.466 C423.468 392.29, 550.066 283.665, 700.376 152.833 M301.753 500.612 C395.07 419.264, 486.891 339.341, 700.774 156.698 M302.613 499.428 C409.429 408.334, 516.195 315.951, 699.837 157.596 M307.115 500.394 C418.415 403.778, 528.045 308.292, 700.237 161.56 M306.192 499.844 C390.493 425.708, 475.557 352.599, 700.218 161.043 M311.328 499.887 C458.085 374.543, 603.736 249.521, 699.792 165.273 M311.315 499.577 C457.286 373.722, 603.773 247.896, 700.335 164.888 M315.225 500.004 C438.338 395.583, 560.615 290.761, 700.012 168.945 M315.318 500.196 C469.226 369.078, 621.676 237.691, 700.132 169.026 M320.134 499.145 C461.075 377.664, 603.126 256.334, 699.898 172.954 M320.577 500.061 C469.402 371.272, 619.378 241.825, 700.701 172.62 M325.377 500.912 C403.975 430.333, 482.847 363.052, 700.815 177.907 M325.172 500.229 C465.574 380.604, 605.733 260.036, 700.071 176.851 M330.031 499.025 C436.456 408.828, 544.5 316.89, 701.344 180.881 M330.28 499.526 C423.147 419.396, 516.054 339.391, 700.603 180.646 M334.225 500.4 C480.291 373.961, 625.49 248.766, 699.484 184.734 M334.211 500.17 C433.643 412.069, 534.417 325.812, 699.915 184.829 M339.373 500.437 C440.075 412.068, 539.131 325.771, 699.565 189.311 M338.898 499.615 C435.859 416.294, 532.761 333.139, 699.83 189.389 M343.52 499.658 C431.604 423.724, 518.428 349.201, 700.557 193.57 M343.782 500.012 C417.148 436.347, 493.043 371.6, 700.381 192.899 M348.136 499.94 C426.548 434.041, 502.927 368.207, 699.404 196.29 M348.008 499.591 C419.897 437.774, 490.18 376.328, 699.719 196.85 M351.843 500.764 C442.41 421.287, 532.166 344.77, 700.26 200.244 M353.021 500.347 C427.199 436.119, 500.539 373.312, 700.692 200.573 M356.283 500.112 C490.36 382.887, 625.489 267.952, 699.922 204.754 M356.533 500.225 C450.887 418.258, 545.479 336.977, 699.738 204.603 M360.859 500.201 C464.024 410.249, 567.175 322.025, 701.487 207.474 M361.437 500.075 C455.108 418.951, 548.033 338.857, 701.022 208.551 M366.827 501.023 C447.46 430.439, 526.68 362.126, 699.357 211.915 M366.13 500.394 C473.036 411.188, 578.509 320.064, 700.077 212.47 M371.203 500.302 C446.004 436.007, 520.008 371.329, 699.341 217.714 M371.286 500.068 C450.284 433.415, 528.2 365.847, 699.867 217.166 M375.593 500.421 C475.569 414.87, 576.901 327.891, 701.356 220.568 M375.576 500.471 C479.266 410.986, 584.724 320.445, 700.796 220.665 M381.124 499.359 C470.069 421.427, 561.297 342.543, 700.589 225.497 M379.716 500.265 C462.18 430.144, 543.199 360.541, 700.372 224.511 M384.634 499.393 C509.629 392.158, 635.116 285.055, 700.288 227.272 M384.091 500.698 C492.809 404.845, 602.934 310.571, 700.389 227.853 M390.506 499.977 C492.308 410.06, 598.132 320.67, 700.086 232.571 M388.913 499.44 C505.933 399.178, 623.146 298.989, 699.832 232.852 M393.577 501.396 C505.293 404.418, 616.762 308.055, 700.569 237.545 M394.217 499.949 C457.918 446.956, 520.311 393.219, 699.504 237.229 M398.043 499.861 C504.544 408.022, 611.368 315.772, 699.651 241.15 M398.176 500.084 C514.565 399.544, 631.908 298.184, 699.913 239.879 M403.472 499.807 C481.463 433.176, 557.848 366.695, 700.177 244.38 M402.439 500.621 C515.22 404.133, 627.758 306.724, 699.722 244.316 M407.25 498.919 C502.832 420.296, 594.92 340.147, 700.45 247.489 M407.958 500.33 C514.871 409.559, 619.618 318.656, 700.998 247.901 M412.141 499.479 C495.993 426.245, 580.575 355.202, 700.922 252.755 M411.649 500.272 C472.237 446.154, 532.806 394.787, 699.84 251.851 M416.775 500.836 C490.616 434.58, 564.121 371.178, 701.172 256.213 M417.561 500.167 C499.316 428.337, 580.397 359.133, 701.097 255.585 M420.401 499.841 C521.605 413.419, 623.026 325.618, 699.02 260.427 M421.214 500.204 C485.045 447.081, 548.849 393.193, 699.967 260.592 M427.479 499.296 C525.309 412.682, 624.277 327.419, 699.929 264.484 M426.269 499.308 C495.525 439.797, 563.559 379.948, 700.244 264.196 M430.653 498.932 C522.683 417.977, 616.501 338.392, 700.536 267.055 M430.36 500.137 C504.312 435.819, 579.476 371.16, 700.643 267.805 M436.402 501.144 C510.826 435.19, 586.975 369.989, 700.329 273.15 M435.102 500.506 C514.415 430.285, 594.524 361.784, 700.156 272.311 M439.528 499.853 C525.095 426.562, 613.63 352.37, 701.146 276.093 M440.288 500.174 C500.089 447.701, 561.897 394.884, 700.561 275.959 M443.89 501.031 C541.553 419.597, 637.774 335.455, 699.532 280.436 M445.217 499.315 C542.819 412.829, 642.984 326.031, 699.809 279.68 M447.654 499.128 C531.221 431.044, 612.444 360.277, 699.186 283.388 M448.903 499.854 C515.055 443.771, 581.364 385.98, 699.272 284.239 M454.616 499.79 C511.078 451.672, 565.024 402.842, 700.746 288.693 M453.909 500.092 C521.707 443.004, 588.942 384.249, 700.506 287.645 M459.101 501.241 C505.572 457.791, 556.675 417.66, 700.585 291.314 M458.725 500.416 C507.818 455.028, 557.202 412.733, 700.354 292.126 M462.235 498.404 C541.427 434.74, 617.684 369.599, 699.052 295.213 M463.092 500.173 C544.707 428.657, 624.96 359.215, 700.508 295.683 M468.641 499.327 C532.178 447.582, 594.611 393.59, 700.93 298.439 M467.237 500.434 C536.085 441.352, 605.579 382.039, 700.025 300.418 M473.817 498.616 C517.139 459.56, 563.866 418.065, 699.707 303.02 M471.86 499.713 C519.423 459.262, 566.412 418.367, 700.176 303.038 M477.981 500.966 C554.835 434.756, 628.512 368.48, 701.074 306.723 M476.981 500.316 C541.548 445.55, 606.889 388.981, 700.943 307.56 M482.582 499.825 C563.476 427.242, 646.951 356.977, 700.979 312.995 M480.94 499.462 C554.565 438.447, 625.797 376.653, 700.649 312.08 M487.257 498.704 C548.97 445.684, 613.068 391.382, 700.763 314.508 M485.311 499.334 C542.627 451.835, 600.062 403.3, 700.771 316.064 M490.193 500.907 C564.926 434.285, 637.915 372.165, 698.616 318.325 M490.189 499.699 C562.491 437.93, 632.985 378.645, 700.706 320.353 M495.134 501.418 C557.893 444.942, 618.791 393.966, 701.425 323.781 M495.545 499.795 C556.775 446.511, 620.972 392.042, 701.07 322.509 M498.957 498.452 C546.616 458.122, 593.856 416.603, 701.713 328.525 M499.34 499.361 C567.889 440.292, 635.282 381.612, 699.585 326.872 M505.112 499.08 C546.299 464.148, 589.962 425.462, 700.151 331.973 M504.972 499.699 C582.77 432.164, 660.153 366.299, 700.401 331.357 M508.281 499.875 C558.417 458.766, 606.396 415.267, 698.896 333.825 M509.212 499.225 C555.558 460.009, 603.775 417.985, 700.89 335.745 M514.993 499.527 C554.755 462.458, 596.837 425.254, 701.136 339.001 M513.759 499.871 C562.21 457.296, 609.13 417.245, 700.112 338.906 M518.121 500.176 C589.832 436.874, 665.355 375.682, 699.278 344.441 M517.05 499.836 C565.629 459.759, 613.98 418.385, 700.968 343.91 M523.209 498.689 C572.424 455.279, 624.625 412.936, 701.181 346.896 M523.564 500.102 C585.351 447.114, 646.359 393.97, 699.756 346.757 M525.631 499.955 C566.356 469.717, 604.689 436.357, 698.93 349.462 M527.166 500.908 C591.554 445.313, 655.335 390.528, 700.472 350.75 M533.662 498.941 C597.173 442.703, 663.769 385.344, 699.046 353.566 M532.772 500.14 C584.349 453.616, 636.657 408.361, 700.219 354.467 M536.212 499.189 C597.926 449.159, 655.37 395.506, 699.88 359.422 M536.174 499.643 C572.56 468.961, 607.421 438.27, 700.171 358.948 M541.74 498.304 C584.434 463.289, 624.295 427.989, 701.181 362.005 M541.494 500.28 C575.351 466.849, 611.471 436.66, 699.487 363.182 M545.048 499.816 C602.403 451.67, 660.033 399.421, 699.713 367.048 M544.796 499.782 C587.206 464.6, 627.677 429.975, 700.883 366.512 M551.454 499.356 C597.684 455.956, 646.117 416.229, 701.265 369.834 M549.746 500.902 C586.572 468.691, 622.063 438.032, 701.156 369.808 M554.354 498.949 C588.969 471.083, 628.201 439.821, 699.768 375.103 M553.793 499.985 C604.466 456.238, 656.208 411.42, 700.373 374.378 M561.563 500.063 C588.879 472.855, 620.985 450.176, 700.559 379.635 M559.756 499.007 C598.134 467.079, 636.982 435.021, 698.886 378.92 M562.649 499.508 C598.046 470.391, 637.67 437.03, 700.897 381.899 M563.642 499.572 C614.8 457.907, 664.471 413.981, 700.112 382.177 M569.141 499.154 C617.854 456.272, 666.386 414.779, 700.014 386.297 M568.685 500.15 C610.981 463.248, 652.907 426.02, 700.615 387.006 M572.054 500.864 C616.398 461.853, 663.044 424.929, 701.141 390.465 M572.825 500.473 C619.935 460.036, 667.174 420.351, 700.911 389.878 M578.726 498.312 C626.796 458.447, 673.111 418.837, 701.67 396.393 M578.843 500.505 C605.165 475.927, 631.769 453.315, 700.169 394.95 M580.757 501.332 C629.037 460.223, 672.071 422.527, 701.107 398.255 M581.922 499.328 C610.819 475.504, 640.109 451.572, 700.73 398.173 M588.358 500.094 C626.288 462.64, 669.486 427.021, 701.501 402.734 M587.109 499.326 C621.19 471.555, 656.519 441.8, 701.091 402.906 M589.554 502.086 C634.152 462.205, 679.463 425.341, 700.516 407.015 M591.569 501.076 C623.209 475.925, 652.974 449.304, 700.227 406.959 M595.455 498.912 C626.971 471.751, 662.763 443.194, 701.302 409.547 M596.723 500.828 C623.587 476.02, 650.87 453.081, 699.518 409.742 M601.244 499.249 C635.767 468.199, 672.129 437.905, 700.788 413.018 M600.968 500.343 C624.214 481.188, 645.629 463.323, 699.226 415.522 M606.892 499.126 C631.88 477.457, 657.022 452.659, 700.868 417.519 M605.066 499.607 C637.894 471.074, 668.493 444.819, 700.206 417.397 M609.765 498.912 C646.78 471.314, 681.112 440.418, 698.184 424.091 M610.22 499.2 C645.228 469.229, 680.677 439.531, 699.981 423.482 M613.019 498.823 C639.107 475.953, 667.695 454.873, 698.098 425.511 M615.148 500.164 C644.267 474.266, 672.894 449.711, 698.892 426.01 M620.353 500.13 C644.856 478.582, 672.632 453.719, 699.37 429.902 M618.696 499.868 C639.365 481.716, 657.05 466.53, 700.953 430.236 M622.958 499.615 C645.692 482.884, 661.64 465.309, 700.385 434.063 M623.234 500.768 C642.091 484.36, 659.965 469.723, 700.613 433.783 M628.2 499.231 C658.419 473.202, 684.738 450.797, 698.603 438.221 M628.873 500.737 C645.62 487.407, 662.411 473.22, 701.26 437.54 M634.558 498.768 C656.437 479.529, 683.335 457.734, 699.451 441.961 M633.374 499.348 C652.011 483.345, 671.881 467.459, 700.113 442.704 M638.525 501.25 C656.666 483.113, 673.181 468.591, 699.952 445.117 M637.753 499.977 C658.678 480.788, 679.789 463.366, 699.566 445.622 M640.763 498.924 C663.485 483.953, 681.01 466.072, 702.101 450.096 M643.054 500.302 C657.962 486.882, 673.686 472.161, 700.319 450.097 M647.738 498.513 C665.923 486.81, 683.748 469.528, 699.659 453.235 M646.465 500.736 C660.323 488.772, 674.19 478.59, 699.333 454.749 M651.285 497.811 C671.823 485.156, 689.914 468.294, 698.463 456.236 M651.46 498.927 C667.095 487.344, 682.395 474.781, 699.689 457.805 M657.446 498.909 C668.962 487.997, 678.592 477.747, 698.708 461.006 M656.704 499.193 C668.584 489.137, 680.361 478.781, 700.847 462.909 M660.81 500.341 C673.753 490.094, 687.889 479.017, 702.117 463.984 M660.085 499.916 C669.428 492.202, 678.018 486.398, 701.047 466.249 M663.668 501.326 C676.788 489.852, 688.666 480.801, 698.66 470.487 M666.242 500.71 C674.445 491.471, 684.823 483.203, 700.095 469.214 M668.867 500.484 C681.065 491.098, 691.535 481.071, 701.115 473.845 M670.468 500.667 C681.895 490.196, 693.438 479.928, 699.794 473.793 M672.817 499.376 C683.781 494.534, 689.975 484.221, 701.621 477.937 M674.548 499.708 C681.648 493.448, 689.992 487.855, 699.342 477.11 M677.912 502.334 C686.05 496.379, 692.076 488.457, 701.896 481.868 M679.292 499.415 C684.955 494.075, 692.962 489.727, 700.56 482.489 M685.263 500.698 C687.722 497.135, 694 490.953, 702.254 486.959 M684.322 500.818 C689.465 493.465, 696.286 489.038, 700.103 485.633 M687.572 499.098 C693.962 497.894, 697.615 492.455, 699.656 488.601 M687.549 499.858 C691.475 496.874, 694.78 495.215, 699.379 490.536 M693.523 500.531 C695.51 498.953, 697.229 496.732, 700.237 493.048 M692.784 499.987 C694.714 498.251, 696.365 497.146, 700.967 493.365 M697.392 500.309 C698.273 499.639, 698.996 498.732, 699.921 497.578 M697.223 500.148 C698.071 499.782, 698.929 498.864, 700.031 497.665" stroke="rgb(51, 51, 51)" stroke-width="2.181" fill="none"></path><path d="M-0.634 0.426 C274.575 0.59, 547.682 1.135, 700.169 0.765 M699.298 -0.683 C698.634 166.587, 699.313 334.077, 699.845 500.54 M699.816 499.821 C493.55 500.671, 285.495 499.249, -0.703 500.436 M-0.408 500.138 C0.881 382.729, 1.618 264.374, 0.022 -0.565" stroke="rgb(51, 51, 51)" stroke-width="1" fill="none"></path></g><g class="text-container" transform="matrix(1 0 0 1 350 21.6172)"><text transform="" text-anchor="middle" dominant-baseline="middle" font-size="20" fill="rgb(224, 223, 223)" y="0" x="0" style="font-style: normal;font-weight: 400;font-size: 20px;font-family: Comic Sans MS, cursive;" stroke="none" stroke-width="1px">pmz (green) &amp; Telepresence (blue)</text></g><g><path d="M143.473 273.156 C214.726 239.424, 284.093 209.378, 386.915 163.155 M388.87 164.792 C469.954 217.236, 553.579 274.526, 630.699 323.296" stroke="rgb(52, 152, 219)" stroke-width="2" fill="none"></path></g><g><path d="M145.276 217.475 C193.641 201.121, 246.703 183.747, 385.981 134.783 M145.734 218.034 C242.716 184.609, 337.945 151.031, 387.804 136.009 M388.263 136.436 C448.529 189.156, 508.42 244.06, 629.873 358.995 M387.616 135.046 C478.433 218.546, 568.793 303.339, 630.048 358.64" stroke="rgb(46, 204, 113)" stroke-width="2" fill="none"></path></g><g><path d="M75.213 467.975 C234.517 465.995, 393.066 465.756, 699.919 467.483" stroke="rgb(224, 223, 223)" stroke-width="2" fill="none"></path></g><g class="text-container" transform="matrix(1 0 0 1 144.969 478.734)"><text transform="" text-anchor="middle" dominant-baseline="text-before-edge" font-size="14" fill="rgb(224, 223, 223)" y="0" x="0" style="font-style: normal;font-weight: 400;font-size: 14px;font-family: Comic Sans MS, cursive;" stroke="none" stroke-width="1px">Requests:1000 Users:50</text></g><g class="text-container" transform="matrix(1 0 0 1 387.484 478.734)"><text transform="" text-anchor="middle" dominant-baseline="text-before-edge" font-size="14" fill="rgb(224, 223, 223)" y="0" x="0" style="font-style: normal;font-weight: 400;font-size: 14px;font-family: Comic Sans MS, cursive;" stroke="none" stroke-width="1px">R:5000 U:100</text></g><g class="text-container" transform="matrix(1 0 0 1 630 478.734)"><text transform="" text-anchor="middle" dominant-baseline="text-before-edge" font-size="14" fill="rgb(224, 223, 223)" y="0" x="0" style="font-style: normal;font-weight: 400;font-size: 14px;font-family: Comic Sans MS, cursive;" stroke="none" stroke-width="1px">R:10000 U:300</text></g><g><path d="M144.827 468.462 C145.426 470.123, 145.143 471.759, 145.245 473.513" stroke="rgb(224, 223, 223)" stroke-width="2" fill="none"></path></g><g><path d="M387.199 469.14 C387.767 469.953, 387.116 472.522, 387.457 473.287 M387.56 468.615 C387.368 470.401, 387.767 472.059, 387.575 473.94" stroke="rgb(224, 223, 223)" stroke-width="2" fill="none"></path></g><g><path d="M630.189 468.67 C629.957 469.849, 630.41 471.179, 630.063 473.479" stroke="rgb(224, 223, 223)" stroke-width="2" fill="none"></path></g><g><path d="M73.883 43.968 C73.069 194.626, 71.493 346.206, 73.497 465.78 M73.461 43.617 C75.335 135.659, 75.552 228.767, 74.12 466.472" stroke="rgb(224, 223, 223)" stroke-width="2" fill="none"></path></g><g class="text-container" transform="matrix(1 0 0 1 62.9688 71.7289)"><text transform="" text-anchor="end" dominant-baseline="middle" font-size="14" fill="rgb(224, 223, 223)" y="0" x="0" style="font-style: normal;font-weight: 400;font-size: 14px;font-family: Comic Sans MS, cursive;" stroke="none" stroke-width="1px">4400</text></g><g class="text-container" transform="matrix(1 0 0 1 62.9688 112.452)"><text transform="" text-anchor="end" dominant-baseline="middle" font-size="14" fill="rgb(224, 223, 223)" y="0" x="0" style="font-style: normal;font-weight: 400;font-size: 14px;font-family: Comic Sans MS, cursive;" stroke="none" stroke-width="1px">4200</text></g><g class="text-container" transform="matrix(1 0 0 1 62.9688 153.176)"><text transform="" text-anchor="end" dominant-baseline="middle" font-size="14" fill="rgb(224, 223, 223)" y="0" x="0" style="font-style: normal;font-weight: 400;font-size: 14px;font-family: Comic Sans MS, cursive;" stroke="none" stroke-width="1px">4000</text></g><g class="text-container" transform="matrix(1 0 0 1 62.9688 193.899)"><text transform="" text-anchor="end" dominant-baseline="middle" font-size="14" fill="rgb(224, 223, 223)" y="0" x="0" style="font-style: normal;font-weight: 400;font-size: 14px;font-family: Comic Sans MS, cursive;" stroke="none" stroke-width="1px">3800</text></g><g class="text-container" transform="matrix(1 0 0 1 62.9688 234.623)"><text transform="" text-anchor="end" dominant-baseline="middle" font-size="14" fill="rgb(224, 223, 223)" y="0" x="0" style="font-style: normal;font-weight: 400;font-size: 14px;font-family: Comic Sans MS, cursive;" stroke="none" stroke-width="1px">3600</text></g><g class="text-container" transform="matrix(1 0 0 1 62.9688 275.346)"><text transform="" text-anchor="end" dominant-baseline="middle" font-size="14" fill="rgb(224, 223, 223)" y="0" x="0" style="font-style: normal;font-weight: 400;font-size: 14px;font-family: Comic Sans MS, cursive;" stroke="none" stroke-width="1px">3400</text></g><g class="text-container" transform="matrix(1 0 0 1 62.9688 316.07)"><text transform="" text-anchor="end" dominant-baseline="middle" font-size="14" fill="rgb(224, 223, 223)" y="0" x="0" style="font-style: normal;font-weight: 400;font-size: 14px;font-family: Comic Sans MS, cursive;" stroke="none" stroke-width="1px">3200</text></g><g class="text-container" transform="matrix(1 0 0 1 62.9688 356.793)"><text transform="" text-anchor="end" dominant-baseline="middle" font-size="14" fill="rgb(224, 223, 223)" y="0" x="0" style="font-style: normal;font-weight: 400;font-size: 14px;font-family: Comic Sans MS, cursive;" stroke="none" stroke-width="1px">3000</text></g><g class="text-container" transform="matrix(1 0 0 1 62.9688 397.516)"><text transform="" text-anchor="end" dominant-baseline="middle" font-size="14" fill="rgb(224, 223, 223)" y="0" x="0" style="font-style: normal;font-weight: 400;font-size: 14px;font-family: Comic Sans MS, cursive;" stroke="none" stroke-width="1px">2800</text></g><g class="text-container" transform="matrix(1 0 0 1 62.9688 438.24)"><text transform="" text-anchor="end" dominant-baseline="middle" font-size="14" fill="rgb(224, 223, 223)" y="0" x="0" style="font-style: normal;font-weight: 400;font-size: 14px;font-family: Comic Sans MS, cursive;" stroke="none" stroke-width="1px">2600</text></g><g><path d="M72.612 71.891 C71.596 72, 69.504 72.182, 68.309 71.721" stroke="rgb(224, 223, 223)" stroke-width="2" fill="none"></path></g><g><path d="M73.245 112.526 C70.674 112.171, 68.925 112.453, 67.495 112.761" stroke="rgb(224, 223, 223)" stroke-width="2" fill="none"></path></g><g><path d="M72.833 152.708 C71.723 153.141, 69.838 153.198, 67.476 153.178 M72.905 153.272 C71.551 153.034, 70.589 153.055, 68.013 152.989" stroke="rgb(224, 223, 223)" stroke-width="2" fill="none"></path></g><g><path d="M73.326 194.22 C71.619 193.785, 70.5 193.93, 67.939 193.424" stroke="rgb(224, 223, 223)" stroke-width="2" fill="none"></path></g><g><path d="M72.666 234.488 C70.766 234.306, 69.825 234.755, 68.137 234.742 M72.856 234.49 C72.049 234.419, 70.909 234.77, 67.784 234.659" stroke="rgb(224, 223, 223)" stroke-width="2" fill="none"></path></g><g><path d="M73.345 275.623 C71.313 275.564, 69.619 275.398, 67.622 274.882" stroke="rgb(224, 223, 223)" stroke-width="2" fill="none"></path></g><g><path d="M72.861 315.982 C71.457 315.537, 69.608 316.303, 68.155 316.382" stroke="rgb(224, 223, 223)" stroke-width="2" fill="none"></path></g><g><path d="M73.027 356.418 C71.763 356.328, 70.441 356.514, 67.783 356.667 M72.778 356.672 C71.859 356.744, 70.966 356.641, 67.849 356.638" stroke="rgb(224, 223, 223)" stroke-width="2" fill="none"></path></g><g><path d="M72.926 397.794 C70.837 397.584, 69.136 397.333, 67.511 397.802 M72.972 397.384 C71.297 397.64, 70.001 397.653, 67.988 397.741" stroke="rgb(224, 223, 223)" stroke-width="2" fill="none"></path></g><g><path d="M73.311 438.564 C70.738 438.346, 68.869 438.523, 68.222 438.399" stroke="rgb(224, 223, 223)" stroke-width="2" fill="none"></path></g><g class="text-container" transform="matrix(-1.83697e-16 -1 1 -1.83697e-16 5 254.984)"><text transform="" text-anchor="middle" dominant-baseline="text-before-edge" font-size="16" fill="rgb(224, 223, 223)" y="0" x="0" style="font-style: normal;font-weight: 400;font-size: 16px;font-family: Comic Sans MS, cursive;" stroke="none" stroke-width="1px">Throughput</text></g></svg>